<?xml version="1.0" encoding="utf-8"?>
<!-- Generator: Adobe Illustrator 24.0.3, SVG Export Plug-In . SVG Version: 6.00 Build 0)  -->
<svg version="1.1" xmlns="http://www.w3.org/2000/svg" xmlns:xlink="http://www.w3.org/1999/xlink" x="0px" y="0px"
	 viewBox="0 0 730.1 733.3" style="enable-background:new 0 0 730.1 733.3;" xml:space="preserve">
<style type="text/css">
	.st0{display:none;}
	.st1{display:inline;}
</style>
<g id="Layer_1" class="st0">
	<g class="st1">
		<path d="M281.9-622.1c-77.6,6-145.1,22.7-214.7,52.8c-59.6,25.7-92.4,47.6-134.1,89.1c-31.9,31.6-52.4,59.6-71.7,97.2
			c-27.3,53.3-42.1,107.1-49.7,180.1c-2,19.9-2.1,103.6-0.1,122.9c2.8,26.4-1.9,85.2-11.1,140.8c-11.5,70.4-26.4,127.7-55.9,215.6
			c-15.6,46.5-24.5,77.2-32.4,111.3c-24.9,107.9-29.6,203.2-12.8,262.7c1.7,6.3,6.3,17.6,10,25.2c6,12,8.7,15.9,19.7,27.2
			c34.4,35.5,71.5,56.5,111.2,62.9c55.9,9.1,110.7-16.7,155.2-72.9c30.5-38.5,51.3-90.7,61.7-154.9c2.5-15.1,6.5-50.8,6.7-57.6v-2.7
			l17.1,2.5c9.3,1.5,17.1,2.8,17.3,2.9c0.3,0.3-0.8,5.1-2.3,10.8c-11.9,47.3-16,104.5-10.3,146.5c4.1,30.5,14,64,26.8,91.1
			c3.3,6.9,5.9,12.8,5.6,13.1c-0.1,0.1-9.9,6.8-21.6,14.5C40,797.1-2.7,831.5-40.8,869.6s-58.9,68.1-68.7,98.8
			c-4,12.7-5.1,36.1-2.1,50c7.2,34.3,31.9,56.8,69.7,63.3c22.7,4,39.1,2.4,78.4-7.5c95.1-23.7,159.9-52.8,203.3-90.9
			c37.7-33.2,59.6-76.3,62.3-123.3l0.8-13.6l8.8,0.9c10.8,1.3,33.7,1.3,40.1,0.3l4.7-0.9l0.1,18.9c0.1,23.5,2.7,33.6,13.9,56.1
			c9.5,19.1,17.5,30,35.3,48.5c36,37.3,86.7,67.9,145.2,87.5c67.7,22.8,128.9,25.5,174,7.5c23.2-9.3,38.8-31.6,38.8-55.5
			c0-22.8-21.6-76.5-44.9-112c-20.7-31.2-51.3-64.4-83.1-90c-7.7-6.3-14.1-12-14-12.7c0-0.8,3.3-4.1,7.5-7.6
			c14-11.6,24.4-28,31.2-49.1c6.8-20.9,6.1-53.9-1.3-76.1c-12-35.2-34.5-57.1-65.3-63.5l-10.7-2.3l0.4-26.7
			c0.5-27.9-1.2-59.5-4.5-83.3c-1.1-7.7-1.9-14.7-1.9-15.6c0-1.1,2.5-2,6.4-2.5c49.5-6.4,76.3-12.1,104-22.3
			c6.1-2.1,11.5-3.7,11.7-3.3c0.4,0.3,2.4,9.5,4.7,20.4c7.3,36.7,15.2,63.3,28.8,97.9c36.1,91.3,93.3,160,154.9,186
			c33.1,14,64.4,14.1,104.3,0.5c50.5-17.2,88.9-57.5,105.1-110.1c21.6-70.4,10.3-157.6-33.2-257.1c-15.5-35.6-34-70.3-76-142.7
			c-59.6-102.5-107.2-230.5-138.5-372c-8.3-37.7-12.1-58.7-12.1-67.1c0-20.9-7.2-63.6-15.5-91.6c-22.9-78-67.7-141.6-143.2-203.3
			c-39.9-32.7-55.5-43.6-82.5-58.5c-56.4-31.3-138.7-55.7-216.8-64.8C361.5-621.6,296.9-623.3,281.9-622.1z M661.7,171.4
			c0.9,30.5,2.9,58.5,5.5,80.4c0.9,8.4,1.3,15.9,0.7,16.5c-0.7,0.5-14.3,0.8-30.3,0.4c-24.7-0.5-31.6-1.2-45.3-4.1
			c-18.1-3.9-41.7-11.3-59.3-18.8l-11.6-4.9l-2.9-8.8c-1.6-4.9-5.2-13.6-8-19.2c-2.9-5.7-5.2-10.7-5.2-10.9s2.5-0.9,5.7-1.5
			c3.1-0.5,14.8-3.6,26.1-6.8c11.2-3.2,21.2-5.9,22.3-5.9c3.6,0,63.1-24.4,81.2-33.2c10.3-5.1,19.1-9.3,19.5-9.3
			C660.4,145.1,661.2,157,661.7,171.4z M102.9,195.1c25.5,4.7,53.5,7.2,82.5,7.6c13.9,0.3,25.1,0.7,25.1,0.9s-2.3,4.1-5.2,8.7
			c-6.8,10.8-12.5,22.5-15.5,31.2c-2,6.3-2.9,7.3-8.7,10.3c-9.2,4.7-30.8,13.1-44.3,17.2c-20.3,6.3-69.2,15.9-70.9,14
			c-0.3-0.3-1.2-16.4-2-35.9s-1.9-41.7-2.3-49.6l-0.8-14.3l12,3.2C79.5,190.3,93.1,193.2,102.9,195.1z"/>
	</g>
</g>
<g id="Layer_2">
	<path d="M487.5,574.9l-29-223l114.6-104l-20.6-20.6c70.7-76,123.1-146.5,143.8-191.7c-45.2,20.7-115.7,73.1-191.7,143.8L484,158.7
		L380,273.3l-223-29l49.8-91.3L30,329.9l29.9-8.3l166.4,121.2l-22.9,25.3L68.8,484.8l-9.6,25.7l94.2,29.6l-5.6,44l44-5.7l29.6,94.2
		l25.7-9.6l16.7-134.5l25.3-22.9L410.3,672l-8.3,29.9L578.9,525L487.5,574.9z"/>
</g>
</svg>
